<svg version="1.1" xmlns="http://www.w3.org/2000/svg" xmlns:xlink="http://www.w3.org/1999/xlink" width="2079" height="316" viewBox="0 0 2079 316"><defs/><g transform="matrix(1,0,0,1,0,0)"><g><g><g><path fill="none" stroke="#d3d3d3" paint-order="fill stroke markers" d=" M 0 0 L 1200 0" stroke-miterlimit="10" stroke-opacity="0.8" stroke-dasharray="5"/></g><g><path fill="none" stroke="#d3d3d3" paint-order="fill stroke markers" d=" M 0 0 L 0 800" stroke-miterlimit="10" stroke-opacity="0.8" stroke-dasharray="5"/></g></g><g id="_0F62255C-7784-469B-86C7-F439987A6893" bpmn2nodeid="_0F62255C-7784-469B-86C7-F439987A6893" transform="matrix(1,0,0,1,595,165)"><g><path fill="none" stroke="none"/></g><g transform="matrix(1,0,0,1,0,0)"><path fill="#ffffff" stroke="none" id="_0F62255C-7784-469B-86C7-F439987A6893?shapeType=BACKGROUND" paint-order="stroke fill markers" d=" M 2 0 L 151 0 L 151 0 A 2 2 0 0 1 153 2 L 153 99 L 153 99 A 2 2 0 0 1 151 101 L 2 101 L 2 101 A 2 2 0 0 1 0 99 L 0 2 L 0 2.0000000000000004 A 2 2 0 0 1 1.9999999999999996 0 Z"/></g><g transform="matrix(1,0,0,1,0,0)"><path fill="none" stroke="rgb(255,0,0)" id="_0F62255C-7784-469B-86C7-F439987A6893?shapeType=BORDER&amp;renderType=STROKE" paint-order="fill stroke markers" d=" M 2 0 L 151 0 L 151 0 A 2 2 0 0 1 153 2 L 153 99 L 153 99 A 2 2 0 0 1 151 101 L 2 101 L 2 101 A 2 2 0 0 1 0 99 L 0 2 L 0 2.0000000000000004 A 2 2 0 0 1 1.9999999999999996 0 Z" stroke-miterlimit="10" stroke-width="5" stroke-dasharray=""/></g><g transform="matrix(1,0,0,1,1,10)"><g transform="matrix(1,0,0,1,0,0)"><g transform="matrix(1,0,0,1,63,66)"><path fill="none" stroke="#393f44" id="_0F62255C-7784-469B-86C7-F439987A6893_subProcessReusableNormalBoundingBox" paint-order="fill stroke markers" d=" M 0 0 L 25 0 L 25 25 L 0 25 L 0 0 Z Z" stroke-miterlimit="10" stroke-width="1.5" stroke-dasharray=""/></g><g transform="matrix(0.04,0,0,0.04,68.64,69.6)"><path fill="#000000" stroke="#000000" id="_0F62255C-7784-469B-86C7-F439987A6893_subProcessReusableNormalReusableIcon" paint-order="fill stroke markers" d=" M 0 0 M 352 184 L 352 232 C 352 238.7 349.7 244.3 345 249 C 340.3 253.7 334.7 256 328 256 L 224 256 L 224 360 C 224 366.7 221.7 372.3 217 377 C 212.3 381.7 206.7 384 200 384 L 152 384 C 145.3 384 139.7 381.7 135 377 C 130.3 372.3 128 366.7 128 360 L 128 256 L 24 256 C 17.3 256 11.7 253.7 7 249 C 2.3000000000000007 244.3 0 238.7 0 232 L 0 184 C 0 177.3 2.3 171.7 7 167 C 11.7 162.3 17.3 160 24 160 L 128 160 L 128 56 C 128 49.3 130.3 43.7 135 39 C 139.7 34.3 145.3 32 152 32 L 200 32 C 206.7 32 212.3 34.3 217 39 C 221.7 43.7 224 49.3 224 56 L 224 160 L 328 160 C 334.7 160 340.3 162.3 345 167 C 349.7 171.7 352 177.3 352 184 Z" stroke-miterlimit="10" stroke-dasharray=""/></g></g></g><g transform="matrix(1,0,0,1,12.82,10)"><g transform="matrix(1,0,0,1,0,0)"><g transform="matrix(1,0,0,1,63,66)"><path fill="none" stroke="none"/></g><g transform="matrix(0.04,0,0,0.04,68.64,69.6)"><path fill="none" stroke="none"/></g><g transform="matrix(0.04,0,0,0.04,40.32,71.04)"><path fill="none" stroke="none"/></g><g transform="matrix(0.04,0,0,0.04,39.36,72)"><path fill="none" stroke="none"/></g></g></g><g transform="matrix(1,0,0,1,13.483333587646484,43)"><text fill="#000000" stroke="none" font-family="Open Sans" font-size="12pt" font-style="normal" font-weight="normal" text-decoration="normal" x="63.016666412353516" y="12" text-anchor="middle" dominant-baseline="alphabetic">getCustomerInfo</text></g></g><g id="_E68A17E6-4BC3-4E49-AFA7-D24B70DBF6A0" bpmn2nodeid="_E68A17E6-4BC3-4E49-AFA7-D24B70DBF6A0" transform="matrix(1,0,0,1,1973,187)"><g><path fill="none" stroke="none"/></g><g transform="matrix(0.125,0,0,0.125,0,0)"><g transform="matrix(1,0,0,1,0,0)"><path fill="#fce7e7" stroke="none" id="_E68A17E6-4BC3-4E49-AFA7-D24B70DBF6A0?shapeType=BACKGROUND" paint-order="stroke fill markers" d=" M 0 0 M 444 224 C 444 263.9 434.2 300.8 414.4 334.5 C 394.7 368.2 368 394.9 334.4 414.5 C 300.79999999999995 434.1 263.9 444 224 444 C 184.10000000000002 444 147.2 434.2 113.5 414.4 C 79.8 394.7 53.1 368 33.5 334.4 C 13.899999999999999 300.79999999999995 4 263.9 4 224 C 4 184.10000000000002 13.8 147.2 33.6 113.5 C 53.400000000000006 79.80000000000001 80.1 53.1 113.6 33.5 C 147.1 13.899999999999999 184.1 4 224 4 C 263.9 4 300.8 13.8 334.5 33.6 C 368.2 53.400000000000006 394.9 80.1 414.5 113.6 C 434.1 147.1 444 184.1 444 224 Z"/></g><g><g transform="matrix(1,0,0,1,0,0)"><g transform="matrix(1,0,0,1,0,0)"><path fill="rgb(163,0,0)" stroke="none" id="_E68A17E6-4BC3-4E49-AFA7-D24B70DBF6A0?shapeType=BORDER&amp;renderType=FILL" paint-order="stroke fill markers" d=" M 0 0 M 224 0 C 100.3 0 0 100.3 0 224 C 0 347.7 100.3 448 224 448 C 347.7 448 448 347.7 448 224 C 448 100.30000000000001 347.7 0 224 0 Z M 0 0 M 224 400 C 126.8 400 48 321.2 48 224 C 48 126.80000000000001 126.8 48 224 48 C 321.2 48 400 126.8 400 224 C 400 321.2 321.2 400 224 400 Z"/></g></g></g></g><g transform="matrix(1,0,0,1,28,61)"/></g><g id="_C736398E-C962-4917-A2F4-12ABCED1DC79" bpmn2nodeid="_C736398E-C962-4917-A2F4-12ABCED1DC79" transform="matrix(1,0,0,1,311,188)"><g><path fill="none" stroke="none"/></g><g transform="matrix(0.125,0,0,0.125,0,0)"><g transform="matrix(1,0,0,1,0,0)"><path fill="#e8fae6" stroke="none" id="_C736398E-C962-4917-A2F4-12ABCED1DC79?shapeType=BACKGROUND" paint-order="stroke fill markers" d=" M 0 0 M 444 224 C 444 263.9 434.2 300.8 414.4 334.5 C 394.7 368.2 368 394.9 334.4 414.5 C 300.79999999999995 434.1 263.9 444 224 444 C 184.10000000000002 444 147.2 434.2 113.5 414.4 C 79.8 394.7 53.1 368 33.5 334.4 C 13.899999999999999 300.79999999999995 4 263.9 4 224 C 4 184.10000000000002 13.8 147.2 33.6 113.5 C 53.400000000000006 79.80000000000001 80.1 53.1 113.6 33.5 C 147.1 13.899999999999999 184.1 4 224 4 C 263.9 4 300.8 13.8 334.5 33.6 C 368.2 53.400000000000006 394.9 80.1 414.5 113.6 C 434.1 147.1 444 184.1 444 224 Z"/></g><g><g transform="matrix(1,0,0,1,0,0)"><g transform="matrix(1,0,0,1,0,0)"><path fill="#4aa241" stroke="none" id="_C736398E-C962-4917-A2F4-12ABCED1DC79?shapeType=BORDER&amp;renderType=FILL" paint-order="stroke fill markers" d=" M 0 0 M 224 0 C 100.3 0 0 100.3 0 224 C 0 347.7 100.3 448 224 448 C 347.7 448 448 347.7 448 224 C 448 100.30000000000001 347.7 0 224 0 Z M 0 0 M 224 432 C 109.1 432 16 338.9 16 224 C 16 109.10000000000002 109.1 16 224 16 C 338.9 16 432 109.1 432 224 C 432 338.9 338.9 432 224 432 Z"/></g></g></g></g><g transform="matrix(1,0,0,1,28,61)"/></g><g id="_111BD893-69CB-46BC-9C8F-9C581D50F880" bpmn2nodeid="_111BD893-69CB-46BC-9C8F-9C581D50F880"><g><path fill="none" stroke="#000000" paint-order="fill stroke markers" d=" M 367 215.9453125 L 580.0000286101476 215.52929681912082" stroke-miterlimit="10" stroke-dasharray=""/></g><g transform="matrix(1,0,0,1,367,215.9453125)"/><g transform="matrix(0.001953121274721102,0.9999980926568242,-0.9999980926568242,0.001953121274721102,594.9902343936263,210.50000953671588)"><path fill="#000000" stroke="#000000" paint-order="fill stroke markers" d=" M 10 15 L 0 15 L 5 0 Z" stroke-miterlimit="10" stroke-dasharray=""/></g><g transform="matrix(1,0,0,1,381.0197219470648,205.72267532343176)"/></g><g transform="matrix(1,0,0,1,595,165)"/><g transform="matrix(1,0,0,1,1973,187)"/><g transform="matrix(1,0,0,1,311,188)"/><g id="_AFEDB8F4-C93B-48F8-A6F5-05162F8411EB" bpmn2nodeid="_AFEDB8F4-C93B-48F8-A6F5-05162F8411EB" transform="matrix(1,0,0,1,1595.6666666666665,165.33333333333331)"><g><path fill="none" stroke="none"/></g><g transform="matrix(1,0,0,1,0,0)"><path fill="#ffffff" stroke="none" id="_AFEDB8F4-C93B-48F8-A6F5-05162F8411EB?shapeType=BACKGROUND" paint-order="stroke fill markers" d=" M 2 0 L 151 0 L 151 0 A 2 2 0 0 1 153 2 L 153 99 L 153 99 A 2 2 0 0 1 151 101 L 2 101 L 2 101 A 2 2 0 0 1 0 99 L 0 2 L 0 2.0000000000000004 A 2 2 0 0 1 1.9999999999999996 0 Z"/></g><g transform="matrix(1,0,0,1,0,0)"><path fill="none" stroke="rgb(57,63,68)" id="_AFEDB8F4-C93B-48F8-A6F5-05162F8411EB?shapeType=BORDER&amp;renderType=STROKE" paint-order="fill stroke markers" d=" M 2 0 L 151 0 L 151 0 A 2 2 0 0 1 153 2 L 153 99 L 153 99 A 2 2 0 0 1 151 101 L 2 101 L 2 101 A 2 2 0 0 1 0 99 L 0 2 L 0 2.0000000000000004 A 2 2 0 0 1 1.9999999999999996 0 Z" stroke-miterlimit="10" stroke-width="5" stroke-dasharray=""/></g><g transform="matrix(1,0,0,1,1,10)"><g transform="matrix(1,0,0,1,0,0)"><g transform="matrix(1,0,0,1,63,66)"><path fill="none" stroke="#393f44" id="_AFEDB8F4-C93B-48F8-A6F5-05162F8411EB_subProcessReusableNormalBoundingBox" paint-order="fill stroke markers" d=" M 0 0 L 25 0 L 25 25 L 0 25 L 0 0 Z Z" stroke-miterlimit="10" stroke-width="1.5" stroke-dasharray=""/></g><g transform="matrix(0.04,0,0,0.04,68.64,69.6)"><path fill="#000000" stroke="#000000" id="_AFEDB8F4-C93B-48F8-A6F5-05162F8411EB_subProcessReusableNormalReusableIcon" paint-order="fill stroke markers" d=" M 0 0 M 352 184 L 352 232 C 352 238.7 349.7 244.3 345 249 C 340.3 253.7 334.7 256 328 256 L 224 256 L 224 360 C 224 366.7 221.7 372.3 217 377 C 212.3 381.7 206.7 384 200 384 L 152 384 C 145.3 384 139.7 381.7 135 377 C 130.3 372.3 128 366.7 128 360 L 128 256 L 24 256 C 17.3 256 11.7 253.7 7 249 C 2.3000000000000007 244.3 0 238.7 0 232 L 0 184 C 0 177.3 2.3 171.7 7 167 C 11.7 162.3 17.3 160 24 160 L 128 160 L 128 56 C 128 49.3 130.3 43.7 135 39 C 139.7 34.3 145.3 32 152 32 L 200 32 C 206.7 32 212.3 34.3 217 39 C 221.7 43.7 224 49.3 224 56 L 224 160 L 328 160 C 334.7 160 340.3 162.3 345 167 C 349.7 171.7 352 177.3 352 184 Z" stroke-miterlimit="10" stroke-dasharray=""/></g></g></g><g transform="matrix(1,0,0,1,12.82,10)"><g transform="matrix(1,0,0,1,0,0)"><g transform="matrix(1,0,0,1,63,66)"><path fill="none" stroke="none"/></g><g transform="matrix(0.04,0,0,0.04,68.64,69.6)"><path fill="none" stroke="none"/></g><g transform="matrix(0.04,0,0,0.04,40.32,71.04)"><path fill="none" stroke="none"/></g><g transform="matrix(0.04,0,0,0.04,39.36,72)"><path fill="none" stroke="none"/></g></g></g><g transform="matrix(1,0,0,1,32.516666412353516,43)"><text fill="#000000" stroke="none" font-family="Open Sans" font-size="12pt" font-style="normal" font-weight="normal" text-decoration="normal" x="43.983333587646484" y="12" text-anchor="middle" dominant-baseline="alphabetic">InConsegna</text></g></g><g id="_51542CAE-1936-4DDD-B214-C744BF49A6FC" bpmn2nodeid="_51542CAE-1936-4DDD-B214-C744BF49A6FC"><g><path fill="none" stroke="rgb(0,0,0)" paint-order="fill stroke markers" d=" M 1748.6666666666665 215.6214219759926 L 1958.0000575498718 215.04155108711947" stroke-miterlimit="10" stroke-dasharray=""/></g><g transform="matrix(1,0,0,1,1748.6666666666665,215.6214219759926)"/><g transform="matrix(0.0027700724746316037,0.9999961633418827,-0.9999961633418827,0.0027700724746316037,1972.9861496376268,210.0000191832906)"><path fill="rgb(0,0,0)" stroke="rgb(0,0,0)" paint-order="fill stroke markers" d=" M 10 15 L 0 15 L 5 0 Z" stroke-miterlimit="10" stroke-dasharray=""/></g><g transform="matrix(1,0,0,1,1760.8614177238915,205.31074935457747)"/></g><g transform="matrix(1,0,0,1,1595.6666666666665,165.33333333333331)"/><g id="_C39C4145-01DC-43B2-A69A-2ECB7AA3B135" bpmn2nodeid="_C39C4145-01DC-43B2-A69A-2ECB7AA3B135" transform="matrix(1,0,0,1,1087,165)"><g><path fill="none" stroke="none"/></g><g transform="matrix(1,0,0,1,0,0)"><path fill="#ffffff" stroke="none" id="_C39C4145-01DC-43B2-A69A-2ECB7AA3B135?shapeType=BACKGROUND" paint-order="stroke fill markers" d=" M 2 0 L 151 0 L 151 0 A 2 2 0 0 1 153 2 L 153 99 L 153 99 A 2 2 0 0 1 151 101 L 2 101 L 2 101 A 2 2 0 0 1 0 99 L 0 2 L 0 2.0000000000000004 A 2 2 0 0 1 1.9999999999999996 0 Z"/></g><g transform="matrix(1,0,0,1,0,0)"><path fill="none" stroke="rgb(0,136,206)" id="_C39C4145-01DC-43B2-A69A-2ECB7AA3B135?shapeType=BORDER&amp;renderType=STROKE" paint-order="fill stroke markers" d=" M 2 0 L 151 0 L 151 0 A 2 2 0 0 1 153 2 L 153 99 L 153 99 A 2 2 0 0 1 151 101 L 2 101 L 2 101 A 2 2 0 0 1 0 99 L 0 2 L 0 2.0000000000000004 A 2 2 0 0 1 1.9999999999999996 0 Z" stroke-miterlimit="10" stroke-width="5" stroke-dasharray=""/></g><g transform="matrix(1,0,0,1,1,10)"><g transform="matrix(1,0,0,1,0,0)"><g transform="matrix(1,0,0,1,63,66)"><path fill="none" stroke="#393f44" id="_C39C4145-01DC-43B2-A69A-2ECB7AA3B135_subProcessReusableNormalBoundingBox" paint-order="fill stroke markers" d=" M 0 0 L 25 0 L 25 25 L 0 25 L 0 0 Z Z" stroke-miterlimit="10" stroke-width="1.5" stroke-dasharray=""/></g><g transform="matrix(0.04,0,0,0.04,68.64,69.6)"><path fill="#000000" stroke="#000000" id="_C39C4145-01DC-43B2-A69A-2ECB7AA3B135_subProcessReusableNormalReusableIcon" paint-order="fill stroke markers" d=" M 0 0 M 352 184 L 352 232 C 352 238.7 349.7 244.3 345 249 C 340.3 253.7 334.7 256 328 256 L 224 256 L 224 360 C 224 366.7 221.7 372.3 217 377 C 212.3 381.7 206.7 384 200 384 L 152 384 C 145.3 384 139.7 381.7 135 377 C 130.3 372.3 128 366.7 128 360 L 128 256 L 24 256 C 17.3 256 11.7 253.7 7 249 C 2.3000000000000007 244.3 0 238.7 0 232 L 0 184 C 0 177.3 2.3 171.7 7 167 C 11.7 162.3 17.3 160 24 160 L 128 160 L 128 56 C 128 49.3 130.3 43.7 135 39 C 139.7 34.3 145.3 32 152 32 L 200 32 C 206.7 32 212.3 34.3 217 39 C 221.7 43.7 224 49.3 224 56 L 224 160 L 328 160 C 334.7 160 340.3 162.3 345 167 C 349.7 171.7 352 177.3 352 184 Z" stroke-miterlimit="10" stroke-dasharray=""/></g></g></g><g transform="matrix(1,0,0,1,12.82,10)"><g transform="matrix(1,0,0,1,0,0)"><g transform="matrix(1,0,0,1,63,66)"><path fill="none" stroke="none"/></g><g transform="matrix(0.04,0,0,0.04,68.64,69.6)"><path fill="none" stroke="none"/></g><g transform="matrix(0.04,0,0,0.04,40.32,71.04)"><path fill="none" stroke="none"/></g><g transform="matrix(0.04,0,0,0.04,39.36,72)"><path fill="none" stroke="none"/></g></g></g><g transform="matrix(1,0,0,1,4.108329772949219,35.5)"><text fill="#000000" stroke="none" font-family="Open Sans" font-size="12pt" font-style="normal" font-weight="normal" text-decoration="normal" x="72.39167022705078" y="12" text-anchor="middle" dominant-baseline="alphabetic">presaAppuntament</text><text fill="#000000" stroke="none" font-family="Open Sans" font-size="12pt" font-style="normal" font-weight="normal" text-decoration="normal" x="72.39167022705078" y="27" text-anchor="middle" dominant-baseline="alphabetic">                o                 </text></g></g><g id="_E370EB1B-99EB-4341-A8E2-CF671EA0AB44" bpmn2nodeid="_E370EB1B-99EB-4341-A8E2-CF671EA0AB44"><g><path fill="none" stroke="#000000" paint-order="fill stroke markers" d=" M 748 215.5 L 1072 215.5" stroke-miterlimit="10" stroke-dasharray=""/></g><g transform="matrix(1,0,0,1,748,215.5)"/><g transform="matrix(6.123233995736766e-17,1,-1,6.123233995736766e-17,1087,210.5)"><path fill="#000000" stroke="#000000" paint-order="fill stroke markers" d=" M 10 15 L 0 15 L 5 0 Z" stroke-miterlimit="10" stroke-dasharray=""/></g><g transform="matrix(1,0,0,1,817.5,205.5)"/></g><g id="_52B4E57D-D352-4B1C-BC8F-A69336D3279C" bpmn2nodeid="_52B4E57D-D352-4B1C-BC8F-A69336D3279C"><g><path fill="none" stroke="rgb(0,0,0)" paint-order="fill stroke markers" d=" M 1240 215.55900501349788 L 1580.6666711285275 215.821763726285" stroke-miterlimit="10" stroke-dasharray=""/></g><g transform="matrix(1,0,0,1,1240,215.55900501349788)"/><g transform="matrix(-0.0007713071365533517,0.9999997025426063,-0.9999997025426063,-0.0007713071365533517,1595.6705232023494,210.83333482062028)"><path fill="rgb(0,0,0)" stroke="rgb(0,0,0)" paint-order="fill stroke markers" d=" M 10 15 L 0 15 L 5 0 Z" stroke-miterlimit="10" stroke-dasharray=""/></g><g transform="matrix(1,0,0,1,1317.841076150438,205.69617214798953)"/></g><g transform="matrix(1,0,0,1,1087,165)"/></g></g></svg>